0
SECTION
2
HEADER
9
$INSUNITS
70
4
9
$ACADVER
1
AC1014
9
$HANDSEED
5
FFFF
0
ENDSEC
0
SECTION
2
TABLES
0
TABLE
2
VPORT
5
8
100
AcDbSymbolTable
0
ENDTAB
0
TABLE
2
LTYPE
5
5
100
AcDbSymbolTable
0
LTYPE
5
14
100
AcDbSymbolTableRecord
100
AcDbLinetypeTableRecord
2
BYBLOCK
70
0
0
LTYPE
5
15
100
AcDbSymbolTableRecord
100
AcDbLinetypeTableRecord
2
BYLAYER
70
0
0
ENDTAB
0
TABLE
2
LAYER
5
2
100
AcDbSymbolTable
70
2
0
LAYER
5
50
100
AcDbSymbolTableRecord
100
AcDbLayerTableRecord
2
0
70
0
6
CONTINUOUS
0
ENDTAB
0
TABLE
2
STYLE
5
3
100
AcDbSymbolTable
70
1
0
STYLE
5
11
100
AcDbSymbolTableRecord
100
AcDbTextStyleTableRecord
2
STANDARD
70
0
0
ENDTAB
0
TABLE
2
VIEW
5
6
100
AcDbSymbolTable
70
0
0
ENDTAB
0
TABLE
2
UCS
5
7
100
AcDbSymbolTable
70
0
0
ENDTAB
0
TABLE
2
APPID
5
9
100
AcDbSymbolTable
70
2
0
APPID
5
12
100
AcDbSymbolTableRecord
100
AcDbRegAppTableRecord
2
ACAD
70
0
0
ENDTAB
0
TABLE
2
DIMSTYLE
5
A
100
AcDbSymbolTable
70
1
0
ENDTAB
0
TABLE
2
BLOCK_RECORD
5
1
100
AcDbSymbolTable
70
1
0
BLOCK_RECORD
5
1F
100
AcDbSymbolTableRecord
100
AcDbBlockTableRecord
2
*MODEL_SPACE
0
BLOCK_RECORD
5
1B
100
AcDbSymbolTableRecord
100
AcDbBlockTableRecord
2
*PAPER_SPACE
0
ENDTAB
0
ENDSEC
0
SECTION
2
BLOCKS
0
BLOCK
5
20
100
AcDbEntity
100
AcDbBlockBegin
2
*MODEL_SPACE
0
ENDBLK
5
21
100
AcDbEntity
100
AcDbBlockEnd
0
BLOCK
5
1C
100
AcDbEntity
100
AcDbBlockBegin
2
*PAPER_SPACE
0
ENDBLK
5
1D
100
AcDbEntity
100
AcDbBlockEnd
0
ENDSEC
0
SECTION
2
ENTITIES
0
LWPOLYLINE
5
100
100
AcDbEntity
8
0
100
AcDbPolyline
90
60
70
1
43
0.0
10
159
20
3.9999999999999991
10
148.18181818181819
20
4
10
148.18181818181819
20
0
10
133.36363636363637
20
0
10
133.36363636363637
20
4
10
118.54545454545456
20
4
10
118.54545454545456
20
0
10
103.72727272727273
20
0
10
103.72727272727273
20
4
10
88.909090909090907
20
4
10
88.909090909090907
20
0
10
74.090909090909093
20
0
10
74.090909090909093
20
4
10
59.27272727272728
20
4
10
59.27272727272728
20
0
10
44.454545454545453
20
0
10
44.454545454545453
20
4
10
29.63636363636364
20
4
10
29.63636363636364
20
0
10
14.81818181818182
20
0
10
14.81818181818182
20
4
10
3.9999999999999991
20
3.9999999999999991
10
4
20
11.6
10
0
20
11.6
10
0
20
23.199999999999999
10
4
20
23.199999999999999
10
4
20
34.800000000000004
10
0
20
34.800000000000004
10
0
20
46.400000000000006
10
4
20
46.400000000000006
10
3.9999999999999991
20
53.999999999999993
10
14.81818181818182
20
53.999999999999993
10
14.81818181818182
20
58
10
29.63636363636364
20
58
10
29.63636363636364
20
53.999999999999993
10
44.454545454545453
20
53.999999999999993
10
44.454545454545453
20
58
10
59.27272727272728
20
58
10
59.27272727272728
20
53.999999999999993
10
74.090909090909093
20
53.999999999999993
10
74.090909090909093
20
58
10
88.909090909090907
20
58
10
88.909090909090907
20
53.999999999999993
10
103.72727272727273
20
53.999999999999993
10
103.72727272727273
20
58
10
118.54545454545456
20
58
10
118.54545454545456
20
53.999999999999993
10
133.36363636363637
20
53.999999999999993
10
133.36363636363637
20
58
10
148.18181818181819
20
58
10
148.18181818181819
20
53.999999999999993
10
159
20
53.999999999999993
10
159
20
46.400000000000006
10
163
20
46.400000000000006
10
163
20
34.800000000000004
10
159
20
34.800000000000004
10
159
20
23.199999999999999
10
163
20
23.199999999999999
10
163
20
11.6
10
159
20
11.6
0
LWPOLYLINE
5
101
100
AcDbEntity
8
0
100
AcDbPolyline
90
60
70
1
43
0.0
10
29.63636363636364
20
3.9999999999999991
10
44.454545454545453
20
3.9999999999999991
10
44.454545454545453
20
0
10
59.27272727272728
20
0
10
59.27272727272728
20
3.9999999999999991
10
74.090909090909093
20
3.9999999999999991
10
74.090909090909093
20
0
10
88.909090909090907
20
0
10
88.909090909090907
20
3.9999999999999991
10
103.72727272727273
20
3.9999999999999991
10
103.72727272727273
20
0
10
118.54545454545456
20
0
10
118.54545454545456
20
3.9999999999999991
10
133.36363636363637
20
3.9999999999999991
10
133.36363636363637
20
0
10
148.18181818181819
20
0
10
148.18181818181819
20
3.9999999999999991
10
159
20
3.9999999999999991
10
159
20
11.599999999999998
10
163
20
11.6
10
163
20
23.199999999999999
10
159
20
23.199999999999999
10
159
20
34.800000000000004
10
163
20
34.800000000000004
10
163
20
46.400000000000006
10
159
20
46.400000000000006
10
159
20
53.999999999999993
10
148.18181818181819
20
53.999999999999993
10
148.18181818181819
20
58
10
133.36363636363637
20
58
10
133.36363636363637
20
53.999999999999993
10
118.54545454545456
20
53.999999999999993
10
118.54545454545456
20
58
10
103.72727272727273
20
58
10
103.72727272727273
20
53.999999999999993
10
88.909090909090907
20
53.999999999999993
10
88.909090909090907
20
58
10
74.090909090909093
20
58
10
74.090909090909093
20
53.999999999999993
10
59.27272727272728
20
53.999999999999993
10
59.27272727272728
20
58
10
44.454545454545453
20
58
10
44.454545454545453
20
53.999999999999993
10
29.636363636363633
20
53.999999999999993
10
29.636363636363647
20
58
10
14.818181818181824
20
58
10
14.818181818181824
20
53.999999999999993
10
4.0000000000000036
20
53.999999999999993
10
3.9999999999999991
20
46.400000000000006
10
0
20
46.400000000000006
10
0
20
34.800000000000004
10
4.0000000000000036
20
34.800000000000004
10
3.9999999999999991
20
23.199999999999999
10
0
20
23.199999999999999
10
0
20
11.599999999999998
10
4.0000000000000036
20
11.6
10
4.0000000000000036
20
3.9999999999999991
10
14.818181818181824
20
3.9999999999999991
10
14.818181818181824
20
0
10
29.636363636363633
20
0
0
ENDSEC
0
SECTION
2
OBJECTS
0
DICTIONARY
5
C
100
AcDbDictionary
3
ACAD_GROUP
350
D
3
ACAD_MLINESTYLE
350
17
0
DICTIONARY
5
D
100
AcDbDictionary
0
DICTIONARY
5
1A
330
C
100
AcDbDictionary
0
DICTIONARY
5
17
100
AcDbDictionary
0
ENDSEC
0
EOF
