0
SECTION
2
HEADER
9
$INSUNITS
70
4
9
$ACADVER
1
AC1014
9
$HANDSEED
5
FFFF
0
ENDSEC
0
SECTION
2
TABLES
0
TABLE
2
VPORT
5
8
100
AcDbSymbolTable
0
ENDTAB
0
TABLE
2
LTYPE
5
5
100
AcDbSymbolTable
0
LTYPE
5
14
100
AcDbSymbolTableRecord
100
AcDbLinetypeTableRecord
2
BYBLOCK
70
0
0
LTYPE
5
15
100
AcDbSymbolTableRecord
100
AcDbLinetypeTableRecord
2
BYLAYER
70
0
0
ENDTAB
0
TABLE
2
LAYER
5
2
100
AcDbSymbolTable
70
2
0
LAYER
5
50
100
AcDbSymbolTableRecord
100
AcDbLayerTableRecord
2
0
70
0
6
CONTINUOUS
0
ENDTAB
0
TABLE
2
STYLE
5
3
100
AcDbSymbolTable
70
1
0
STYLE
5
11
100
AcDbSymbolTableRecord
100
AcDbTextStyleTableRecord
2
STANDARD
70
0
0
ENDTAB
0
TABLE
2
VIEW
5
6
100
AcDbSymbolTable
70
0
0
ENDTAB
0
TABLE
2
UCS
5
7
100
AcDbSymbolTable
70
0
0
ENDTAB
0
TABLE
2
APPID
5
9
100
AcDbSymbolTable
70
2
0
APPID
5
12
100
AcDbSymbolTableRecord
100
AcDbRegAppTableRecord
2
ACAD
70
0
0
ENDTAB
0
TABLE
2
DIMSTYLE
5
A
100
AcDbSymbolTable
70
1
0
ENDTAB
0
TABLE
2
BLOCK_RECORD
5
1
100
AcDbSymbolTable
70
1
0
BLOCK_RECORD
5
1F
100
AcDbSymbolTableRecord
100
AcDbBlockTableRecord
2
*MODEL_SPACE
0
BLOCK_RECORD
5
1B
100
AcDbSymbolTableRecord
100
AcDbBlockTableRecord
2
*PAPER_SPACE
0
ENDTAB
0
ENDSEC
0
SECTION
2
BLOCKS
0
BLOCK
5
20
100
AcDbEntity
100
AcDbBlockBegin
2
*MODEL_SPACE
0
ENDBLK
5
21
100
AcDbEntity
100
AcDbBlockEnd
0
BLOCK
5
1C
100
AcDbEntity
100
AcDbBlockBegin
2
*PAPER_SPACE
0
ENDBLK
5
1D
100
AcDbEntity
100
AcDbBlockEnd
0
ENDSEC
0
SECTION
2
ENTITIES
0
LWPOLYLINE
5
100
100
AcDbEntity
8
0
100
AcDbPolyline
90
4
70
1
43
0.0
10
-146.5
20
81.5
10
-146.5
20
16.500000000000004
10
-16.500000000000004
20
16.500000000000004
10
-16.500000000000004
20
81.5
0
LWPOLYLINE
5
101
100
AcDbEntity
8
0
100
AcDbPolyline
90
68
70
1
43
0.0
10
-163
20
70.000000000000014
10
-159
20
70.000000000000014
10
-159
20
84.000000000000028
10
-163
20
84.000000000000028
10
-163
20
98
10
-148.18181818181819
20
98
10
-148.18181818181819
20
94
10
-133.36363636363637
20
94
10
-133.36363636363637
20
98
10
-118.54545454545456
20
98
10
-118.54545454545456
20
94
10
-103.72727272727273
20
94
10
-103.72727272727273
20
98
10
-88.909090909090907
20
98
10
-88.909090909090907
20
94
10
-74.090909090909093
20
94
10
-74.090909090909093
20
98
10
-59.27272727272728
20
98
10
-59.27272727272728
20
94
10
-44.454545454545453
20
94
10
-44.454545454545453
20
98
10
-29.63636363636364
20
98
10
-29.63636363636364
20
94
10
-14.81818181818182
20
94
10
-14.81818181818182
20
98
10
0
20
98
10
0
20
84.000000000000028
10
-4
20
84.000000000000028
10
-4
20
70.000000000000014
10
6.1629758220391547e-32
20
70.000000000000014
10
0
20
56.000000000000014
10
-4
20
56.000000000000014
10
-4
20
42
10
6.1629758220391547e-32
20
42
10
0
20
28.000000000000007
10
-4
20
28.000000000000007
10
-4
20
14.000000000000002
10
6.1629758220391547e-32
20
14.000000000000002
10
0
20
0
10
-14.81818181818182
20
0
10
-14.81818181818182
20
4
10
-29.63636363636364
20
4
10
-29.63636363636364
20
0
10
-44.454545454545453
20
0
10
-44.454545454545453
20
4
10
-59.27272727272728
20
4
10
-59.27272727272728
20
0
10
-74.090909090909093
20
0
10
-74.090909090909093
20
4
10
-88.909090909090907
20
4
10
-88.909090909090907
20
0
10
-103.72727272727273
20
0
10
-103.72727272727273
20
4
10
-118.54545454545456
20
4
10
-118.54545454545456
20
0
10
-133.36363636363637
20
0
10
-133.36363636363637
20
4
10
-148.18181818181819
20
4
10
-148.18181818181819
20
0
10
-163
20
0
10
-163
20
14.000000000000002
10
-159
20
14.000000000000002
10
-159
20
28.000000000000007
10
-163
20
28.000000000000007
10
-163
20
42
10
-159
20
42
10
-159
20
56.000000000000014
10
-163
20
56.000000000000014
0
LWPOLYLINE
5
102
100
AcDbEntity
8
0
100
AcDbPolyline
90
4
70
1
43
0.0
10
-146.5
20
16.500000000000004
10
-146.5
20
81.5
10
-16.500000000000004
20
81.5
10
-16.500000000000004
20
16.500000000000004
0
LWPOLYLINE
5
103
100
AcDbEntity
8
0
100
AcDbPolyline
90
68
70
1
43
0.0
10
-163
20
70.000000000000014
10
-159
20
70.000000000000014
10
-159
20
84.000000000000028
10
-163
20
84.000000000000028
10
-163
20
98
10
-148.18181818181819
20
98
10
-148.18181818181819
20
94
10
-133.36363636363637
20
94
10
-133.36363636363637
20
98
10
-118.54545454545456
20
98
10
-118.54545454545456
20
94
10
-103.72727272727273
20
94
10
-103.72727272727273
20
98
10
-88.909090909090907
20
98
10
-88.909090909090907
20
94
10
-74.090909090909093
20
94
10
-74.090909090909093
20
98
10
-59.27272727272728
20
98
10
-59.27272727272728
20
94
10
-44.454545454545453
20
94
10
-44.454545454545453
20
98
10
-29.636363636363647
20
98
10
-29.636363636363633
20
94
10
-14.81818181818182
20
94
10
-14.818181818181824
20
98
10
0
20
98
10
0
20
84.000000000000028
10
-3.9999999999999991
20
84.000000000000028
10
-4.0000000000000036
20
70.000000000000014
10
0
20
70.000000000000014
10
0
20
56.000000000000014
10
-3.9999999999999991
20
56.000000000000014
10
-4.0000000000000036
20
42
10
0
20
42.000000000000014
10
0
20
28.000000000000007
10
-3.9999999999999991
20
28.000000000000007
10
-4.0000000000000036
20
14
10
0
20
14.000000000000004
10
0
20
0
10
-14.81818181818182
20
0
10
-14.818181818181824
20
3.9999999999999991
10
-29.63636363636364
20
4.0000000000000036
10
-29.636363636363633
20
0
10
-44.454545454545453
20
0
10
-44.454545454545453
20
3.9999999999999991
10
-59.27272727272728
20
4.0000000000000036
10
-59.27272727272728
20
0
10
-74.090909090909093
20
0
10
-74.090909090909093
20
3.9999999999999991
10
-88.909090909090907
20
4.0000000000000036
10
-88.909090909090907
20
0
10
-103.72727272727273
20
0
10
-103.72727272727273
20
3.9999999999999991
10
-118.54545454545456
20
4.0000000000000036
10
-118.54545454545456
20
0
10
-133.36363636363637
20
0
10
-133.36363636363637
20
3.9999999999999991
10
-148.18181818181819
20
4.0000000000000036
10
-148.18181818181819
20
0
10
-163
20
0
10
-163
20
14.000000000000002
10
-159
20
14.000000000000004
10
-159
20
28.000000000000007
10
-163
20
28.000000000000007
10
-163
20
42
10
-159
20
42.000000000000014
10
-159
20
56.000000000000014
10
-163
20
56.000000000000014
0
ENDSEC
0
SECTION
2
OBJECTS
0
DICTIONARY
5
C
100
AcDbDictionary
3
ACAD_GROUP
350
D
3
ACAD_MLINESTYLE
350
17
0
DICTIONARY
5
D
100
AcDbDictionary
0
DICTIONARY
5
1A
330
C
100
AcDbDictionary
0
DICTIONARY
5
17
100
AcDbDictionary
0
ENDSEC
0
EOF
