0
SECTION
2
HEADER
9
$INSUNITS
70
4
9
$ACADVER
1
AC1014
9
$HANDSEED
5
FFFF
0
ENDSEC
0
SECTION
2
TABLES
0
TABLE
2
VPORT
5
8
100
AcDbSymbolTable
0
ENDTAB
0
TABLE
2
LTYPE
5
5
100
AcDbSymbolTable
0
LTYPE
5
14
100
AcDbSymbolTableRecord
100
AcDbLinetypeTableRecord
2
BYBLOCK
70
0
0
LTYPE
5
15
100
AcDbSymbolTableRecord
100
AcDbLinetypeTableRecord
2
BYLAYER
70
0
0
ENDTAB
0
TABLE
2
LAYER
5
2
100
AcDbSymbolTable
70
2
0
LAYER
5
50
100
AcDbSymbolTableRecord
100
AcDbLayerTableRecord
2
0
70
0
6
CONTINUOUS
0
ENDTAB
0
TABLE
2
STYLE
5
3
100
AcDbSymbolTable
70
1
0
STYLE
5
11
100
AcDbSymbolTableRecord
100
AcDbTextStyleTableRecord
2
STANDARD
70
0
0
ENDTAB
0
TABLE
2
VIEW
5
6
100
AcDbSymbolTable
70
0
0
ENDTAB
0
TABLE
2
UCS
5
7
100
AcDbSymbolTable
70
0
0
ENDTAB
0
TABLE
2
APPID
5
9
100
AcDbSymbolTable
70
2
0
APPID
5
12
100
AcDbSymbolTableRecord
100
AcDbRegAppTableRecord
2
ACAD
70
0
0
ENDTAB
0
TABLE
2
DIMSTYLE
5
A
100
AcDbSymbolTable
70
1
0
ENDTAB
0
TABLE
2
BLOCK_RECORD
5
1
100
AcDbSymbolTable
70
1
0
BLOCK_RECORD
5
1F
100
AcDbSymbolTableRecord
100
AcDbBlockTableRecord
2
*MODEL_SPACE
0
BLOCK_RECORD
5
1B
100
AcDbSymbolTableRecord
100
AcDbBlockTableRecord
2
*PAPER_SPACE
0
ENDTAB
0
ENDSEC
0
SECTION
2
BLOCKS
0
BLOCK
5
20
100
AcDbEntity
100
AcDbBlockBegin
2
*MODEL_SPACE
0
ENDBLK
5
21
100
AcDbEntity
100
AcDbBlockEnd
0
BLOCK
5
1C
100
AcDbEntity
100
AcDbBlockBegin
2
*PAPER_SPACE
0
ENDBLK
5
1D
100
AcDbEntity
100
AcDbBlockEnd
0
ENDSEC
0
SECTION
2
ENTITIES
0
LWPOLYLINE
5
100
100
AcDbEntity
8
0
100
AcDbPolyline
90
69
70
1
43
0.0
10
24.727272727272727
20
93.5
42
-0.99999999999999989
10
14.727272727272727
20
93.5
10
14.727272727272727
20
97
10
0
20
97
10
0
20
83.142857142857139
10
3.5000000000000004
20
83.142857142857139
10
3.5000000000000004
20
69.285714285714292
10
0
20
69.285714285714292
10
0
20
55.428571428571431
10
3.5000000000000004
20
55.428571428571431
10
3.5000000000000004
20
41.571428571428569
10
0
20
41.571428571428569
10
0
20
27.714285714285715
10
3.5000000000000004
20
27.714285714285715
10
3.5000000000000004
20
13.857142857142858
10
0
20
13.857142857142858
10
0
20
0
10
14.727272727272727
20
0
10
14.727272727272727
20
3.5000000000000004
10
29.454545454545453
20
3.5000000000000004
10
29.454545454545453
20
0
10
44.18181818181818
20
0
10
44.18181818181818
20
3.5000000000000004
10
58.909090909090907
20
3.5000000000000004
10
58.909090909090907
20
0
10
73.636363636363626
20
0
10
73.636363636363626
20
3.5000000000000004
10
88.36363636363636
20
3.5000000000000004
10
88.36363636363636
20
0
10
103.09090909090909
20
0
10
103.09090909090909
20
3.5000000000000004
10
117.81818181818181
20
3.5000000000000004
10
117.81818181818181
20
0
10
132.54545454545453
20
0
10
132.54545454545453
20
3.5000000000000004
10
147.27272727272725
20
3.5000000000000004
10
147.27272727272725
20
0
10
162
20
0
10
162
20
13.857142857142858
10
158.5
20
13.857142857142858
10
158.5
20
27.714285714285715
10
162
20
27.714285714285715
10
162
20
41.571428571428569
10
158.5
20
41.571428571428569
10
158.5
20
55.428571428571431
10
162
20
55.428571428571431
10
162
20
69.285714285714292
10
158.5
20
69.285714285714292
10
158.5
20
83.142857142857139
10
162
20
83.142857142857139
10
162
20
97
10
147.27272727272725
20
97
10
147.27272727272725
20
93.5
10
132.54545454545453
20
93.5
10
132.54545454545453
20
97
10
117.81818181818181
20
97
10
117.81818181818181
20
93.5
10
103.09090909090909
20
93.5
10
103.09090909090909
20
97
10
88.36363636363636
20
97
10
88.36363636363636
20
93.5
10
73.636363636363626
20
93.5
10
73.636363636363626
20
97
10
58.909090909090907
20
97
10
58.909090909090907
20
93.5
10
44.18181818181818
20
93.5
10
44.18181818181818
20
97
10
29.454545454545453
20
97
10
29.454545454545453
20
93.5
0
CIRCLE
5
101
100
AcDbEntity
8
0
100
AcDbCircle
10
15.999999999999996
20
81
30
0
40
2.5000000000000022
0
LWPOLYLINE
5
102
100
AcDbEntity
8
0
100
AcDbPolyline
90
69
70
1
43
0.0
10
24.727272727272727
20
93.5
42
-0.99999999999999989
10
14.727272727272727
20
93.5
10
14.727272727272727
20
97
10
0
20
97
10
0
20
83.142857142857139
10
3.4999999999999964
20
83.142857142857139
10
3.5000000000000009
20
69.285714285714292
10
0
20
69.285714285714292
10
0
20
55.428571428571431
10
3.4999999999999964
20
55.428571428571431
10
3.5000000000000009
20
41.571428571428569
10
0
20
41.571428571428569
10
0
20
27.714285714285715
10
3.4999999999999964
20
27.714285714285715
10
3.5000000000000009
20
13.857142857142859
10
0
20
13.857142857142861
10
0
20
0
10
14.727272727272727
20
0
10
14.727272727272727
20
3.4999999999999964
10
29.454545454545453
20
3.5000000000000009
10
29.454545454545453
20
7.8437874098680147e-32
10
44.18181818181818
20
0
10
44.18181818181818
20
3.4999999999999964
10
58.909090909090907
20
3.5000000000000009
10
58.909090909090907
20
1.5687574819736029e-31
10
73.636363636363626
20
0
10
73.636363636363626
20
3.4999999999999964
10
88.36363636363636
20
3.5000000000000009
10
88.36363636363636
20
2.3531362229604049e-31
10
103.09090909090909
20
0
10
103.09090909090909
20
3.4999999999999964
10
117.81818181818181
20
3.5000000000000009
10
117.81818181818181
20
3.1375149639472059e-31
10
132.54545454545453
20
0
10
132.54545454545453
20
3.4999999999999964
10
147.27272727272725
20
3.5000000000000009
10
147.27272727272725
20
3.9218937049340078e-31
10
162
20
0
10
162
20
13.857142857142859
10
158.5
20
13.857142857142859
10
158.5
20
27.714285714285715
10
162
20
27.714285714285715
10
162
20
41.571428571428569
10
158.5
20
41.571428571428569
10
158.5
20
55.428571428571431
10
162
20
55.428571428571431
10
162
20
69.285714285714292
10
158.5
20
69.285714285714292
10
158.5
20
83.142857142857139
10
162
20
83.142857142857139
10
162
20
97
10
147.27272727272725
20
97
10
147.27272727272725
20
93.5
10
132.54545454545453
20
93.5
10
132.54545454545453
20
97
10
117.81818181818181
20
97
10
117.81818181818181
20
93.5
10
103.09090909090909
20
93.5
10
103.09090909090909
20
97
10
88.36363636363636
20
97
10
88.36363636363636
20
93.5
10
73.636363636363626
20
93.5
10
73.636363636363626
20
97
10
58.909090909090907
20
97
10
58.909090909090907
20
93.5
10
44.18181818181818
20
93.5
10
44.18181818181818
20
97
10
29.454545454545453
20
97
10
29.454545454545453
20
93.5
0
CIRCLE
5
103
100
AcDbEntity
8
0
100
AcDbCircle
10
15.999999999999996
20
81
30
0
40
2.5000000000000022
0
ENDSEC
0
SECTION
2
OBJECTS
0
DICTIONARY
5
C
100
AcDbDictionary
3
ACAD_GROUP
350
D
3
ACAD_MLINESTYLE
350
17
0
DICTIONARY
5
D
100
AcDbDictionary
0
DICTIONARY
5
1A
330
C
100
AcDbDictionary
0
DICTIONARY
5
17
100
AcDbDictionary
0
ENDSEC
0
EOF
