0
SECTION
2
HEADER
9
$INSUNITS
70
4
9
$ACADVER
1
AC1014
9
$HANDSEED
5
FFFF
0
ENDSEC
0
SECTION
2
TABLES
0
TABLE
2
VPORT
5
8
100
AcDbSymbolTable
0
ENDTAB
0
TABLE
2
LTYPE
5
5
100
AcDbSymbolTable
0
LTYPE
5
14
100
AcDbSymbolTableRecord
100
AcDbLinetypeTableRecord
2
BYBLOCK
70
0
0
LTYPE
5
15
100
AcDbSymbolTableRecord
100
AcDbLinetypeTableRecord
2
BYLAYER
70
0
0
ENDTAB
0
TABLE
2
LAYER
5
2
100
AcDbSymbolTable
70
2
0
LAYER
5
50
100
AcDbSymbolTableRecord
100
AcDbLayerTableRecord
2
0
70
0
6
CONTINUOUS
0
ENDTAB
0
TABLE
2
STYLE
5
3
100
AcDbSymbolTable
70
1
0
STYLE
5
11
100
AcDbSymbolTableRecord
100
AcDbTextStyleTableRecord
2
STANDARD
70
0
0
ENDTAB
0
TABLE
2
VIEW
5
6
100
AcDbSymbolTable
70
0
0
ENDTAB
0
TABLE
2
UCS
5
7
100
AcDbSymbolTable
70
0
0
ENDTAB
0
TABLE
2
APPID
5
9
100
AcDbSymbolTable
70
2
0
APPID
5
12
100
AcDbSymbolTableRecord
100
AcDbRegAppTableRecord
2
ACAD
70
0
0
ENDTAB
0
TABLE
2
DIMSTYLE
5
A
100
AcDbSymbolTable
70
1
0
ENDTAB
0
TABLE
2
BLOCK_RECORD
5
1
100
AcDbSymbolTable
70
1
0
BLOCK_RECORD
5
1F
100
AcDbSymbolTableRecord
100
AcDbBlockTableRecord
2
*MODEL_SPACE
0
BLOCK_RECORD
5
1B
100
AcDbSymbolTableRecord
100
AcDbBlockTableRecord
2
*PAPER_SPACE
0
ENDTAB
0
ENDSEC
0
SECTION
2
BLOCKS
0
BLOCK
5
20
100
AcDbEntity
100
AcDbBlockBegin
2
*MODEL_SPACE
0
ENDBLK
5
21
100
AcDbEntity
100
AcDbBlockEnd
0
BLOCK
5
1C
100
AcDbEntity
100
AcDbBlockBegin
2
*PAPER_SPACE
0
ENDBLK
5
1D
100
AcDbEntity
100
AcDbBlockEnd
0
ENDSEC
0
SECTION
2
ENTITIES
0
LINE
5
100
100
AcDbEntity
8
0
100
AcDbLine
10
147.27272727272725
20
3.5000000000000004
30
0
11
159
21
3.5000000000000009
31
0
0
LINE
5
101
100
AcDbEntity
8
0
100
AcDbLine
10
159
20
3.5000000000000009
30
0
11
159
21
11.400000000000002
31
0
0
LINE
5
102
100
AcDbEntity
8
0
100
AcDbLine
10
159
20
11.400000000000002
30
0
11
162
21
11.400000000000002
31
0
0
LINE
5
103
100
AcDbEntity
8
0
100
AcDbLine
10
162
20
11.400000000000002
30
0
11
162
21
22.800000000000004
31
0
0
LINE
5
104
100
AcDbEntity
8
0
100
AcDbLine
10
162
20
22.800000000000004
30
0
11
159
21
22.800000000000004
31
0
0
LINE
5
105
100
AcDbEntity
8
0
100
AcDbLine
10
159
20
22.800000000000004
30
0
11
159
21
34.200000000000003
31
0
0
LINE
5
106
100
AcDbEntity
8
0
100
AcDbLine
10
159
20
34.200000000000003
30
0
11
162
21
34.200000000000003
31
0
0
LINE
5
107
100
AcDbEntity
8
0
100
AcDbLine
10
162
20
45.600000000000009
30
0
11
159
21
45.600000000000009
31
0
0
LINE
5
108
100
AcDbEntity
8
0
100
AcDbLine
10
159
20
45.600000000000009
30
0
11
159
21
53.999999999999993
31
0
0
LINE
5
109
100
AcDbEntity
8
0
100
AcDbLine
10
159
20
53.999999999999993
30
0
11
147.27272727272725
21
53.999999999999993
31
0
0
LINE
5
110
100
AcDbEntity
8
0
100
AcDbLine
10
147.27272727272725
20
53.999999999999993
30
0
11
147.27272727272725
21
57
31
0
0
LINE
5
111
100
AcDbEntity
8
0
100
AcDbLine
10
147.27272727272725
20
57
30
0
11
132.54545454545453
21
57
31
0
0
LINE
5
112
100
AcDbEntity
8
0
100
AcDbLine
10
132.54545454545453
20
57
30
0
11
132.54545454545453
21
53.999999999999993
31
0
0
LINE
5
113
100
AcDbEntity
8
0
100
AcDbLine
10
132.54545454545453
20
53.999999999999993
30
0
11
117.81818181818181
21
53.999999999999993
31
0
0
LINE
5
114
100
AcDbEntity
8
0
100
AcDbLine
10
117.81818181818181
20
53.999999999999993
30
0
11
117.81818181818181
21
57
31
0
0
LINE
5
115
100
AcDbEntity
8
0
100
AcDbLine
10
103.09090909090909
20
57
30
0
11
103.09090909090909
21
53.999999999999993
31
0
0
LINE
5
116
100
AcDbEntity
8
0
100
AcDbLine
10
103.09090909090909
20
53.999999999999993
30
0
11
88.36363636363636
21
53.999999999999993
31
0
0
LINE
5
117
100
AcDbEntity
8
0
100
AcDbLine
10
88.36363636363636
20
53.999999999999993
30
0
11
88.36363636363636
21
57
31
0
0
LINE
5
118
100
AcDbEntity
8
0
100
AcDbLine
10
73.636363636363626
20
57
30
0
11
73.636363636363626
21
53.999999999999993
31
0
0
LINE
5
119
100
AcDbEntity
8
0
100
AcDbLine
10
73.636363636363626
20
53.999999999999993
30
0
11
58.909090909090907
21
53.999999999999993
31
0
0
LINE
5
120
100
AcDbEntity
8
0
100
AcDbLine
10
58.909090909090907
20
53.999999999999993
30
0
11
58.909090909090907
21
57
31
0
0
LINE
5
121
100
AcDbEntity
8
0
100
AcDbLine
10
44.18181818181818
20
57
30
0
11
44.18181818181818
21
53.999999999999993
31
0
0
LINE
5
122
100
AcDbEntity
8
0
100
AcDbLine
10
44.18181818181818
20
53.999999999999993
30
0
11
29.454545454545453
21
53.999999999999993
31
0
0
LINE
5
123
100
AcDbEntity
8
0
100
AcDbLine
10
29.454545454545453
20
53.999999999999993
30
0
11
29.454545454545453
21
57
31
0
0
LINE
5
124
100
AcDbEntity
8
0
100
AcDbLine
10
14.727272727272727
20
57
30
0
11
14.727272727272727
21
53.999999999999993
31
0
0
LINE
5
125
100
AcDbEntity
8
0
100
AcDbLine
10
14.727272727272727
20
53.999999999999993
30
0
11
3.5000000000000009
21
53.999999999999993
31
0
0
LINE
5
126
100
AcDbEntity
8
0
100
AcDbLine
10
3.5000000000000009
20
53.999999999999993
30
0
11
3.5000000000000004
21
45.600000000000009
31
0
0
LINE
5
127
100
AcDbEntity
8
0
100
AcDbLine
10
3.5000000000000004
20
45.600000000000009
30
0
11
0
21
45.600000000000009
31
0
0
LINE
5
128
100
AcDbEntity
8
0
100
AcDbLine
10
0
20
45.600000000000009
30
0
11
0
21
34.200000000000003
31
0
0
LINE
5
129
100
AcDbEntity
8
0
100
AcDbLine
10
0
20
34.200000000000003
30
0
11
3.5000000000000004
21
34.200000000000003
31
0
0
LINE
5
130
100
AcDbEntity
8
0
100
AcDbLine
10
3.5000000000000004
20
34.200000000000003
30
0
11
3.5000000000000004
21
22.800000000000004
31
0
0
LINE
5
131
100
AcDbEntity
8
0
100
AcDbLine
10
3.5000000000000004
20
22.800000000000004
30
0
11
0
21
22.800000000000004
31
0
0
LINE
5
132
100
AcDbEntity
8
0
100
AcDbLine
10
0
20
22.800000000000004
30
0
11
0
21
11.400000000000002
31
0
0
LINE
5
133
100
AcDbEntity
8
0
100
AcDbLine
10
0
20
11.400000000000002
30
0
11
3.5000000000000004
21
11.400000000000002
31
0
0
LINE
5
134
100
AcDbEntity
8
0
100
AcDbLine
10
3.5000000000000004
20
11.400000000000002
30
0
11
3.5000000000000009
21
3.5000000000000009
31
0
0
LINE
5
135
100
AcDbEntity
8
0
100
AcDbLine
10
3.5000000000000009
20
3.5000000000000009
30
0
11
14.727272727272727
21
3.5000000000000004
31
0
0
LINE
5
136
100
AcDbEntity
8
0
100
AcDbLine
10
14.727272727272727
20
3.5000000000000004
30
0
11
14.727272727272727
21
0
31
0
0
LINE
5
137
100
AcDbEntity
8
0
100
AcDbLine
10
14.727272727272727
20
0
30
0
11
29.454545454545453
21
0
31
0
0
LINE
5
138
100
AcDbEntity
8
0
100
AcDbLine
10
29.454545454545453
20
0
30
0
11
29.454545454545453
21
3.5000000000000004
31
0
0
LINE
5
139
100
AcDbEntity
8
0
100
AcDbLine
10
29.454545454545453
20
3.5000000000000004
30
0
11
44.18181818181818
21
3.5000000000000004
31
0
0
LINE
5
140
100
AcDbEntity
8
0
100
AcDbLine
10
44.18181818181818
20
3.5000000000000004
30
0
11
44.18181818181818
21
0
31
0
0
LINE
5
141
100
AcDbEntity
8
0
100
AcDbLine
10
44.18181818181818
20
0
30
0
11
58.909090909090907
21
0
31
0
0
LINE
5
142
100
AcDbEntity
8
0
100
AcDbLine
10
58.909090909090907
20
0
30
0
11
58.909090909090907
21
3.5000000000000004
31
0
0
LINE
5
143
100
AcDbEntity
8
0
100
AcDbLine
10
58.909090909090907
20
3.5000000000000004
30
0
11
73.636363636363626
21
3.5000000000000004
31
0
0
LINE
5
144
100
AcDbEntity
8
0
100
AcDbLine
10
73.636363636363626
20
3.5000000000000004
30
0
11
73.636363636363626
21
0
31
0
0
LINE
5
145
100
AcDbEntity
8
0
100
AcDbLine
10
73.636363636363626
20
0
30
0
11
88.36363636363636
21
0
31
0
0
LINE
5
146
100
AcDbEntity
8
0
100
AcDbLine
10
88.36363636363636
20
0
30
0
11
88.36363636363636
21
3.5000000000000004
31
0
0
LINE
5
147
100
AcDbEntity
8
0
100
AcDbLine
10
88.36363636363636
20
3.5000000000000004
30
0
11
103.09090909090909
21
3.5000000000000004
31
0
0
LINE
5
148
100
AcDbEntity
8
0
100
AcDbLine
10
103.09090909090909
20
3.5000000000000004
30
0
11
103.09090909090909
21
0
31
0
0
LINE
5
149
100
AcDbEntity
8
0
100
AcDbLine
10
103.09090909090909
20
0
30
0
11
117.81818181818181
21
0
31
0
0
LINE
5
150
100
AcDbEntity
8
0
100
AcDbLine
10
117.81818181818181
20
0
30
0
11
117.81818181818181
21
3.5000000000000004
31
0
0
LINE
5
151
100
AcDbEntity
8
0
100
AcDbLine
10
117.81818181818181
20
3.5000000000000004
30
0
11
132.54545454545453
21
3.5000000000000004
31
0
0
LINE
5
152
100
AcDbEntity
8
0
100
AcDbLine
10
132.54545454545453
20
3.5000000000000004
30
0
11
132.54545454545453
21
0
31
0
0
LINE
5
153
100
AcDbEntity
8
0
100
AcDbLine
10
132.54545454545453
20
0
30
0
11
147.27272727272725
21
0
31
0
0
LINE
5
154
100
AcDbEntity
8
0
100
AcDbLine
10
147.27272727272725
20
0
30
0
11
147.27272727272725
21
3.5000000000000004
31
0
0
LINE
5
155
100
AcDbEntity
8
0
100
AcDbLine
10
44.18181818181818
20
3.5000000000000009
30
0
11
29.454545454545453
21
3.5000000000000009
31
0
0
LINE
5
156
100
AcDbEntity
8
0
100
AcDbLine
10
73.636363636363626
20
3.5000000000000009
30
0
11
58.909090909090907
21
3.5000000000000009
31
0
0
LINE
5
157
100
AcDbEntity
8
0
100
AcDbLine
10
14.727272727272727
20
3.5000000000000009
30
0
11
3.4999999999999964
21
3.5000000000000009
31
0
0
LINE
5
158
100
AcDbEntity
8
0
100
AcDbLine
10
103.09090909090909
20
3.5000000000000009
30
0
11
88.36363636363636
21
3.5000000000000009
31
0
0
LINE
5
159
100
AcDbEntity
8
0
100
AcDbLine
10
132.54545454545453
20
3.5000000000000009
30
0
11
117.81818181818181
21
3.5000000000000009
31
0
0
LINE
5
160
100
AcDbEntity
8
0
100
AcDbLine
10
159
20
3.5000000000000009
30
0
11
147.27272727272725
21
3.5000000000000009
31
0
0
LINE
5
161
100
AcDbEntity
8
0
100
AcDbLine
10
132.54545454545453
20
0
30
0
11
132.54545454545453
21
3.5000000000000009
31
0
0
LINE
5
162
100
AcDbEntity
8
0
100
AcDbLine
10
147.27272727272725
20
3.5000000000000009
30
0
11
147.27272727272725
21
0
31
0
0
LINE
5
163
100
AcDbEntity
8
0
100
AcDbLine
10
103.09090909090909
20
0
30
0
11
103.09090909090909
21
3.5000000000000009
31
0
0
LINE
5
164
100
AcDbEntity
8
0
100
AcDbLine
10
117.81818181818181
20
3.5000000000000009
30
0
11
117.81818181818181
21
0
31
0
0
LINE
5
165
100
AcDbEntity
8
0
100
AcDbLine
10
73.636363636363626
20
0
30
0
11
73.636363636363626
21
3.5000000000000009
31
0
0
LINE
5
166
100
AcDbEntity
8
0
100
AcDbLine
10
88.36363636363636
20
3.5000000000000009
30
0
11
88.36363636363636
21
0
31
0
0
LINE
5
167
100
AcDbEntity
8
0
100
AcDbLine
10
44.18181818181818
20
0
30
0
11
44.18181818181818
21
3.5000000000000009
31
0
0
LINE
5
168
100
AcDbEntity
8
0
100
AcDbLine
10
58.909090909090907
20
3.5000000000000009
30
0
11
58.909090909090907
21
0
31
0
0
LINE
5
169
100
AcDbEntity
8
0
100
AcDbLine
10
14.727272727272727
20
0
30
0
11
14.727272727272727
21
3.5000000000000009
31
0
0
LINE
5
170
100
AcDbEntity
8
0
100
AcDbLine
10
29.454545454545453
20
3.5000000000000009
30
0
11
29.454545454545453
21
0
31
0
0
LINE
5
171
100
AcDbEntity
8
0
100
AcDbLine
10
44.18181818181818
20
0
30
0
11
58.909090909090907
21
0
31
0
0
LINE
5
172
100
AcDbEntity
8
0
100
AcDbLine
10
14.727272727272727
20
0
30
0
11
29.454545454545453
21
0
31
0
0
LINE
5
173
100
AcDbEntity
8
0
100
AcDbLine
10
73.636363636363626
20
0
30
0
11
88.36363636363636
21
0
31
0
0
LINE
5
174
100
AcDbEntity
8
0
100
AcDbLine
10
103.09090909090909
20
0
30
0
11
117.81818181818181
21
0
31
0
0
LINE
5
175
100
AcDbEntity
8
0
100
AcDbLine
10
132.54545454545453
20
0
30
0
11
147.27272727272725
21
0
31
0
0
LINE
5
176
100
AcDbEntity
8
0
100
AcDbLine
10
3.4999999999999964
20
3.5000000000000009
30
0
11
3.4999999999999964
21
11.400000000000002
31
0
0
LINE
5
177
100
AcDbEntity
8
0
100
AcDbLine
10
3.4999999999999964
20
11.400000000000002
30
0
11
0
21
11.400000000000002
31
0
0
LINE
5
178
100
AcDbEntity
8
0
100
AcDbLine
10
0
20
22.800000000000004
30
0
11
0
21
11.400000000000002
31
0
0
LINE
5
179
100
AcDbEntity
8
0
100
AcDbLine
10
0
20
22.800000000000004
30
0
11
3.5000000000000009
21
22.800000000000004
31
0
0
LINE
5
180
100
AcDbEntity
8
0
100
AcDbLine
10
3.5000000000000009
20
22.800000000000004
30
0
11
3.4999999999999964
21
34.200000000000003
31
0
0
LINE
5
181
100
AcDbEntity
8
0
100
AcDbLine
10
3.4999999999999964
20
34.200000000000003
30
0
11
0
21
34.200000000000003
31
0
0
LINE
5
182
100
AcDbEntity
8
0
100
AcDbLine
10
0
20
45.600000000000009
30
0
11
0
21
34.200000000000003
31
0
0
LINE
5
183
100
AcDbEntity
8
0
100
AcDbLine
10
0
20
45.600000000000009
30
0
11
3.5000000000000009
21
45.600000000000009
31
0
0
LINE
5
184
100
AcDbEntity
8
0
100
AcDbLine
10
3.5000000000000009
20
45.600000000000009
30
0
11
3.4999999999999964
21
53.999999999999993
31
0
0
LINE
5
185
100
AcDbEntity
8
0
100
AcDbLine
10
3.4999999999999964
20
53.999999999999993
30
0
11
14.727272727272727
21
53.999999999999993
31
0
0
LINE
5
186
100
AcDbEntity
8
0
100
AcDbLine
10
14.727272727272727
20
53.999999999999993
30
0
11
14.727272727272727
21
57
31
0
0
LINE
5
187
100
AcDbEntity
8
0
100
AcDbLine
10
29.454545454545453
20
57
30
0
11
29.454545454545453
21
53.999999999999993
31
0
0
LINE
5
188
100
AcDbEntity
8
0
100
AcDbLine
10
29.454545454545453
20
53.999999999999993
30
0
11
44.18181818181818
21
53.999999999999993
31
0
0
LINE
5
189
100
AcDbEntity
8
0
100
AcDbLine
10
44.18181818181818
20
53.999999999999993
30
0
11
44.18181818181818
21
57
31
0
0
LINE
5
190
100
AcDbEntity
8
0
100
AcDbLine
10
58.909090909090907
20
57
30
0
11
58.909090909090907
21
53.999999999999993
31
0
0
LINE
5
191
100
AcDbEntity
8
0
100
AcDbLine
10
58.909090909090907
20
53.999999999999993
30
0
11
73.636363636363626
21
53.999999999999993
31
0
0
LINE
5
192
100
AcDbEntity
8
0
100
AcDbLine
10
73.636363636363626
20
53.999999999999993
30
0
11
73.636363636363626
21
57
31
0
0
LINE
5
193
100
AcDbEntity
8
0
100
AcDbLine
10
88.36363636363636
20
57
30
0
11
88.36363636363636
21
53.999999999999993
31
0
0
LINE
5
194
100
AcDbEntity
8
0
100
AcDbLine
10
88.36363636363636
20
53.999999999999993
30
0
11
103.09090909090909
21
53.999999999999993
31
0
0
LINE
5
195
100
AcDbEntity
8
0
100
AcDbLine
10
103.09090909090909
20
53.999999999999993
30
0
11
103.09090909090909
21
57
31
0
0
LINE
5
196
100
AcDbEntity
8
0
100
AcDbLine
10
117.81818181818181
20
57
30
0
11
117.81818181818181
21
53.999999999999993
31
0
0
LINE
5
197
100
AcDbEntity
8
0
100
AcDbLine
10
117.81818181818181
20
53.999999999999993
30
0
11
132.54545454545453
21
53.999999999999993
31
0
0
LINE
5
198
100
AcDbEntity
8
0
100
AcDbLine
10
132.54545454545453
20
53.999999999999993
30
0
11
132.54545454545453
21
57
31
0
0
LINE
5
199
100
AcDbEntity
8
0
100
AcDbLine
10
147.27272727272725
20
57
30
0
11
147.27272727272725
21
53.999999999999993
31
0
0
LINE
5
200
100
AcDbEntity
8
0
100
AcDbLine
10
147.27272727272725
20
53.999999999999993
30
0
11
159
21
53.999999999999993
31
0
0
LINE
5
201
100
AcDbEntity
8
0
100
AcDbLine
10
159
20
53.999999999999993
30
0
11
159
21
45.600000000000009
31
0
0
LINE
5
202
100
AcDbEntity
8
0
100
AcDbLine
10
159
20
45.600000000000009
30
0
11
162
21
45.600000000000009
31
0
0
LINE
5
203
100
AcDbEntity
8
0
100
AcDbLine
10
162
20
34.200000000000003
30
0
11
162
21
45.600000000000009
31
0
0
LINE
5
204
100
AcDbEntity
8
0
100
AcDbLine
10
162
20
34.200000000000003
30
0
11
159
21
34.200000000000003
31
0
0
LINE
5
205
100
AcDbEntity
8
0
100
AcDbLine
10
159
20
34.200000000000003
30
0
11
159
21
22.800000000000004
31
0
0
LINE
5
206
100
AcDbEntity
8
0
100
AcDbLine
10
159
20
22.800000000000004
30
0
11
162
21
22.800000000000004
31
0
0
LINE
5
207
100
AcDbEntity
8
0
100
AcDbLine
10
162
20
11.400000000000002
30
0
11
159
21
11.400000000000002
31
0
0
LINE
5
208
100
AcDbEntity
8
0
100
AcDbLine
10
159
20
11.400000000000002
30
0
11
159
21
3.5000000000000009
31
0
0
LINE
5
209
100
AcDbEntity
8
0
100
AcDbLine
10
162
20
34.200000000000003
30
0
11
162
21
45.600000000000009
31
0
0
LINE
5
210
100
AcDbEntity
8
0
100
AcDbLine
10
117.81818181818181
20
57
30
0
11
103.09090909090909
21
57
31
0
0
LINE
5
211
100
AcDbEntity
8
0
100
AcDbLine
10
88.36363636363636
20
57
30
0
11
73.636363636363626
21
57
31
0
0
LINE
5
212
100
AcDbEntity
8
0
100
AcDbLine
10
58.909090909090907
20
57
30
0
11
44.18181818181818
21
57
31
0
0
LINE
5
213
100
AcDbEntity
8
0
100
AcDbLine
10
29.454545454545453
20
57
30
0
11
14.727272727272727
21
57
31
0
0
LINE
5
214
100
AcDbEntity
8
0
100
AcDbLine
10
58.909090909090907
20
57
30
0
11
44.18181818181818
21
57
31
0
0
LINE
5
215
100
AcDbEntity
8
0
100
AcDbLine
10
88.36363636363636
20
57
30
0
11
73.636363636363626
21
57
31
0
0
LINE
5
216
100
AcDbEntity
8
0
100
AcDbLine
10
117.81818181818181
20
57
30
0
11
103.09090909090909
21
57
31
0
0
LINE
5
217
100
AcDbEntity
8
0
100
AcDbLine
10
147.27272727272725
20
57
30
0
11
132.54545454545453
21
57
31
0
0
LINE
5
218
100
AcDbEntity
8
0
100
AcDbLine
10
162
20
11.400000000000002
30
0
11
162
21
22.800000000000004
31
0
0
LINE
5
219
100
AcDbEntity
8
0
100
AcDbLine
10
29.454545454545453
20
57
30
0
11
14.727272727272727
21
57
31
0
0
ENDSEC
0
SECTION
2
OBJECTS
0
DICTIONARY
5
C
100
AcDbDictionary
3
ACAD_GROUP
350
D
3
ACAD_MLINESTYLE
350
17
0
DICTIONARY
5
D
100
AcDbDictionary
0
DICTIONARY
5
1A
330
C
100
AcDbDictionary
0
DICTIONARY
5
17
100
AcDbDictionary
0
ENDSEC
0
EOF
