0
SECTION
2
HEADER
9
$INSUNITS
70
4
9
$ACADVER
1
AC1014
9
$HANDSEED
5
FFFF
0
ENDSEC
0
SECTION
2
TABLES
0
TABLE
2
VPORT
5
8
100
AcDbSymbolTable
0
ENDTAB
0
TABLE
2
LTYPE
5
5
100
AcDbSymbolTable
0
LTYPE
5
14
100
AcDbSymbolTableRecord
100
AcDbLinetypeTableRecord
2
BYBLOCK
70
0
0
LTYPE
5
15
100
AcDbSymbolTableRecord
100
AcDbLinetypeTableRecord
2
BYLAYER
70
0
0
ENDTAB
0
TABLE
2
LAYER
5
2
100
AcDbSymbolTable
70
2
0
LAYER
5
50
100
AcDbSymbolTableRecord
100
AcDbLayerTableRecord
2
0
70
0
6
CONTINUOUS
0
ENDTAB
0
TABLE
2
STYLE
5
3
100
AcDbSymbolTable
70
1
0
STYLE
5
11
100
AcDbSymbolTableRecord
100
AcDbTextStyleTableRecord
2
STANDARD
70
0
0
ENDTAB
0
TABLE
2
VIEW
5
6
100
AcDbSymbolTable
70
0
0
ENDTAB
0
TABLE
2
UCS
5
7
100
AcDbSymbolTable
70
0
0
ENDTAB
0
TABLE
2
APPID
5
9
100
AcDbSymbolTable
70
2
0
APPID
5
12
100
AcDbSymbolTableRecord
100
AcDbRegAppTableRecord
2
ACAD
70
0
0
ENDTAB
0
TABLE
2
DIMSTYLE
5
A
100
AcDbSymbolTable
70
1
0
ENDTAB
0
TABLE
2
BLOCK_RECORD
5
1
100
AcDbSymbolTable
70
1
0
BLOCK_RECORD
5
1F
100
AcDbSymbolTableRecord
100
AcDbBlockTableRecord
2
*MODEL_SPACE
0
BLOCK_RECORD
5
1B
100
AcDbSymbolTableRecord
100
AcDbBlockTableRecord
2
*PAPER_SPACE
0
ENDTAB
0
ENDSEC
0
SECTION
2
BLOCKS
0
BLOCK
5
20
100
AcDbEntity
100
AcDbBlockBegin
2
*MODEL_SPACE
0
ENDBLK
5
21
100
AcDbEntity
100
AcDbBlockEnd
0
BLOCK
5
1C
100
AcDbEntity
100
AcDbBlockBegin
2
*PAPER_SPACE
0
ENDBLK
5
1D
100
AcDbEntity
100
AcDbBlockEnd
0
ENDSEC
0
SECTION
2
ENTITIES
0
LINE
5
100
100
AcDbEntity
8
0
100
AcDbLine
10
-13.857142857142858
20
3.5000000000000004
30
0
11
0
21
3.5000000000000004
31
0
0
LINE
5
101
100
AcDbEntity
8
0
100
AcDbLine
10
0
20
3.5000000000000004
30
0
11
0
21
11.400000000000002
31
0
0
LINE
5
102
100
AcDbEntity
8
0
100
AcDbLine
10
0
20
11.400000000000002
30
0
11
-3.5000000000000004
21
11.400000000000002
31
0
0
LINE
5
103
100
AcDbEntity
8
0
100
AcDbLine
10
-3.5000000000000004
20
11.400000000000002
30
0
11
-3.5000000000000004
21
22.800000000000004
31
0
0
LINE
5
104
100
AcDbEntity
8
0
100
AcDbLine
10
-3.5000000000000004
20
22.800000000000004
30
0
11
0
21
22.800000000000004
31
0
0
LINE
5
105
100
AcDbEntity
8
0
100
AcDbLine
10
0
20
22.800000000000004
30
0
11
0
21
34.200000000000003
31
0
0
LINE
5
106
100
AcDbEntity
8
0
100
AcDbLine
10
0
20
34.200000000000003
30
0
11
-3.5000000000000004
21
34.200000000000003
31
0
0
LINE
5
107
100
AcDbEntity
8
0
100
AcDbLine
10
-3.5000000000000004
20
34.200000000000003
30
0
11
-3.5000000000000004
21
45.600000000000009
31
0
0
LINE
5
108
100
AcDbEntity
8
0
100
AcDbLine
10
-3.5000000000000004
20
45.600000000000009
30
0
11
0
21
45.600000000000009
31
0
0
LINE
5
109
100
AcDbEntity
8
0
100
AcDbLine
10
0
20
45.600000000000009
30
0
11
-1.0586706933564193e-32
21
53.999999999999993
31
0
0
LINE
5
110
100
AcDbEntity
8
0
100
AcDbLine
10
-1.0586706933564193e-32
20
53.999999999999993
30
0
11
-13.857142857142858
21
53.999999999999993
31
0
0
LINE
5
111
100
AcDbEntity
8
0
100
AcDbLine
10
-13.857142857142858
20
53.999999999999993
30
0
11
-13.857142857142861
21
57
31
0
0
LINE
5
112
100
AcDbEntity
8
0
100
AcDbLine
10
-13.857142857142861
20
57
30
0
11
-27.714285714285715
21
57
31
0
0
LINE
5
113
100
AcDbEntity
8
0
100
AcDbLine
10
-27.714285714285715
20
57
30
0
11
-27.714285714285715
21
53.999999999999993
31
0
0
LINE
5
114
100
AcDbEntity
8
0
100
AcDbLine
10
-27.714285714285715
20
53.999999999999993
30
0
11
-41.571428571428569
21
53.999999999999993
31
0
0
LINE
5
115
100
AcDbEntity
8
0
100
AcDbLine
10
-41.571428571428569
20
53.999999999999993
30
0
11
-41.571428571428569
21
57
31
0
0
LINE
5
116
100
AcDbEntity
8
0
100
AcDbLine
10
-55.428571428571431
20
57
30
0
11
-55.428571428571431
21
53.999999999999993
31
0
0
LINE
5
117
100
AcDbEntity
8
0
100
AcDbLine
10
-55.428571428571431
20
53.999999999999993
30
0
11
-69.285714285714292
21
53.999999999999993
31
0
0
LINE
5
118
100
AcDbEntity
8
0
100
AcDbLine
10
-69.285714285714292
20
53.999999999999993
30
0
11
-69.285714285714292
21
57
31
0
0
LINE
5
119
100
AcDbEntity
8
0
100
AcDbLine
10
-83.142857142857139
20
57
30
0
11
-83.142857142857139
21
53.999999999999993
31
0
0
LINE
5
120
100
AcDbEntity
8
0
100
AcDbLine
10
-83.142857142857139
20
53.999999999999993
30
0
11
-97
21
53.999999999999993
31
0
0
LINE
5
121
100
AcDbEntity
8
0
100
AcDbLine
10
-97
20
53.999999999999993
30
0
11
-97
21
45.600000000000009
31
0
0
LINE
5
122
100
AcDbEntity
8
0
100
AcDbLine
10
-97
20
45.600000000000009
30
0
11
-93.5
21
45.600000000000009
31
0
0
LINE
5
123
100
AcDbEntity
8
0
100
AcDbLine
10
-93.5
20
45.600000000000009
30
0
11
-93.5
21
34.200000000000003
31
0
0
LINE
5
124
100
AcDbEntity
8
0
100
AcDbLine
10
-93.5
20
34.200000000000003
30
0
11
-97
21
34.200000000000003
31
0
0
LINE
5
125
100
AcDbEntity
8
0
100
AcDbLine
10
-97
20
34.200000000000003
30
0
11
-97
21
22.800000000000004
31
0
0
LINE
5
126
100
AcDbEntity
8
0
100
AcDbLine
10
-97
20
22.800000000000004
30
0
11
-93.5
21
22.800000000000004
31
0
0
LINE
5
127
100
AcDbEntity
8
0
100
AcDbLine
10
-93.5
20
22.800000000000004
30
0
11
-93.5
21
11.400000000000002
31
0
0
LINE
5
128
100
AcDbEntity
8
0
100
AcDbLine
10
-93.5
20
11.400000000000002
30
0
11
-97
21
11.400000000000002
31
0
0
LINE
5
129
100
AcDbEntity
8
0
100
AcDbLine
10
-97
20
11.400000000000002
30
0
11
-97
21
3.5000000000000009
31
0
0
LINE
5
130
100
AcDbEntity
8
0
100
AcDbLine
10
-97
20
3.5000000000000009
30
0
11
-83.142857142857139
21
3.5000000000000004
31
0
0
LINE
5
131
100
AcDbEntity
8
0
100
AcDbLine
10
-83.142857142857139
20
3.5000000000000004
30
0
11
-83.142857142857139
21
0
31
0
0
LINE
5
132
100
AcDbEntity
8
0
100
AcDbLine
10
-83.142857142857139
20
0
30
0
11
-69.285714285714292
21
0
31
0
0
LINE
5
133
100
AcDbEntity
8
0
100
AcDbLine
10
-69.285714285714292
20
0
30
0
11
-69.285714285714292
21
3.5000000000000004
31
0
0
LINE
5
134
100
AcDbEntity
8
0
100
AcDbLine
10
-69.285714285714292
20
3.5000000000000004
30
0
11
-55.428571428571431
21
3.5000000000000004
31
0
0
LINE
5
135
100
AcDbEntity
8
0
100
AcDbLine
10
-55.428571428571431
20
3.5000000000000004
30
0
11
-55.428571428571431
21
0
31
0
0
LINE
5
136
100
AcDbEntity
8
0
100
AcDbLine
10
-55.428571428571431
20
0
30
0
11
-41.571428571428569
21
0
31
0
0
LINE
5
137
100
AcDbEntity
8
0
100
AcDbLine
10
-41.571428571428569
20
0
30
0
11
-41.571428571428569
21
3.5000000000000004
31
0
0
LINE
5
138
100
AcDbEntity
8
0
100
AcDbLine
10
-41.571428571428569
20
3.5000000000000004
30
0
11
-27.714285714285715
21
3.5000000000000004
31
0
0
LINE
5
139
100
AcDbEntity
8
0
100
AcDbLine
10
-27.714285714285715
20
3.5000000000000004
30
0
11
-27.714285714285715
21
0
31
0
0
LINE
5
140
100
AcDbEntity
8
0
100
AcDbLine
10
-27.714285714285715
20
0
30
0
11
-13.857142857142858
21
0
31
0
0
LINE
5
141
100
AcDbEntity
8
0
100
AcDbLine
10
-13.857142857142858
20
0
30
0
11
-13.857142857142858
21
3.5000000000000004
31
0
0
LWPOLYLINE
5
142
100
AcDbEntity
8
0
100
AcDbPolyline
90
44
70
1
43
0.0
10
-69.285714285714292
20
3.5000000000000009
10
-55.428571428571431
20
3.5000000000000009
10
-55.428571428571431
20
0
10
-41.571428571428569
20
0
10
-41.571428571428569
20
3.5000000000000004
10
-27.714285714285715
20
3.5000000000000004
10
-27.714285714285715
20
0
10
-13.857142857142859
20
0
10
-13.857142857142858
20
3.5000000000000009
10
0
20
3.5000000000000009
10
0
20
11.400000000000002
10
-3.4999999999999964
20
11.400000000000002
10
-3.5000000000000009
20
22.800000000000004
10
0
20
22.800000000000004
10
0
20
34.200000000000003
10
-3.4999999999999964
20
34.200000000000003
10
-3.5000000000000009
20
45.600000000000009
10
0
20
45.600000000000009
10
0
20
53.999999999999993
10
-13.857142857142859
20
53.999999999999993
10
-13.857142857142861
20
57
10
-27.714285714285715
20
57
10
-27.714285714285715
20
53.999999999999993
10
-41.571428571428569
20
53.999999999999993
10
-41.571428571428569
20
57
10
-55.428571428571431
20
57
10
-55.428571428571431
20
53.999999999999993
10
-69.285714285714292
20
53.999999999999993
10
-69.285714285714292
20
57
10
-83.142857142857139
20
57
10
-83.142857142857139
20
53.999999999999993
10
-97
20
53.999999999999993
10
-97
20
45.600000000000009
10
-93.5
20
45.600000000000009
10
-93.5
20
34.200000000000003
10
-97
20
34.200000000000003
10
-97
20
22.800000000000004
10
-93.5
20
22.800000000000004
10
-93.5
20
11.400000000000002
10
-97
20
11.400000000000002
10
-97
20
3.5000000000000009
10
-83.142857142857139
20
3.5000000000000009
10
-83.142857142857139
20
0
10
-69.285714285714292
20
0
0
LINE
5
143
100
AcDbEntity
8
0
100
AcDbLine
10
-41.571428571428569
20
57
30
0
11
-55.428571428571431
21
57
31
0
0
LINE
5
144
100
AcDbEntity
8
0
100
AcDbLine
10
-69.285714285714292
20
57
30
0
11
-83.142857142857139
21
57
31
0
0
ENDSEC
0
SECTION
2
OBJECTS
0
DICTIONARY
5
C
100
AcDbDictionary
3
ACAD_GROUP
350
D
3
ACAD_MLINESTYLE
350
17
0
DICTIONARY
5
D
100
AcDbDictionary
0
DICTIONARY
5
1A
330
C
100
AcDbDictionary
0
DICTIONARY
5
17
100
AcDbDictionary
0
ENDSEC
0
EOF
